<svg width="64" height="64" viewBox="0 0 64 64" fill="none" xmlns="http://www.w3.org/2000/svg">
<path d="M50.9314 28.4272C53.8968 31.9317 53.28 36.2173 53.2802 40C53.2802 50.4165 39.2352 53.3333 32 53.3333C24.7647 53.3333 10.7198 50.4165 10.7198 40C10.7198 36.2173 10.1033 31.9317 13.0684 28.4272M50.9314 28.4272C50.4128 27.8141 49.7845 27.225 49.024 26.6666M50.9314 28.4272C52.7981 29.5024 53.2749 25.4792 53.2802 24.1666V19.1669C53.2802 14.8336 50.301 13.3336 47.7474 13.3336C45.1938 13.3336 40.0864 17.5 38.384 17.5C36.341 17.5 35.9477 17.0836 32 17.0836C28.0525 17.0836 27.6589 17.5 25.616 17.5C23.9136 17.5 18.8062 13.3333 16.2526 13.3333C13.699 13.3333 10.7198 14.8333 10.7198 19.1666V24.1666C10.725 25.4792 11.2019 29.5024 13.0684 28.4272M13.0684 28.4272C13.5871 27.8141 14.2155 27.225 14.9759 26.6666" stroke="#1ECBE6" stroke-width="4" stroke-linecap="round"/>
<path opacity="0.5" d="M34.2027 42.6666C34.2027 43.1269 33.24 43.5 32.0523 43.5C30.8645 43.5 29.9016 43.1269 29.9016 42.6666C29.9016 42.2064 30.8645 41.8333 32.0523 41.8333C33.24 41.8333 34.2027 42.2064 34.2027 42.6666Z" stroke="#1ECBE6" stroke-width="4"/>
<path opacity="0.5" d="M41.3333 36.2502C41.3333 37.4006 40.7557 38.3334 40.0429 38.3334C39.3304 38.3334 38.7528 37.4006 38.7528 36.2502C38.7528 35.0995 39.3304 34.1667 40.0429 34.1667C40.7557 34.1667 41.3333 35.0995 41.3333 36.2502Z" stroke="#1ECBE6" stroke-width="4"/>
<path opacity="0.5" d="M25.3333 36.2502C25.3333 37.4006 24.7556 38.3334 24.043 38.3334C23.3304 38.3334 22.7527 37.4006 22.7527 36.2502C22.7527 35.0995 23.3304 34.1667 24.043 34.1667C24.7556 34.1667 25.3333 35.0995 25.3333 36.2502Z" stroke="#1ECBE6" stroke-width="4"/>
<path opacity="0.5" d="M58.6678 41.2501C57.3774 40.4165 51.7859 38.3333 49.6355 38.3333" stroke="#1ECBE6" stroke-width="4" stroke-linecap="round"/>
<path opacity="0.5" d="M54.3657 47.9168C53.0755 47.0832 50.0646 45 47.9142 45" stroke="#1ECBE6" stroke-width="4" stroke-linecap="round"/>
<path opacity="0.5" d="M5.33337 41.2501C6.62369 40.4165 12.2151 38.3333 14.3656 38.3333" stroke="#1ECBE6" stroke-width="4" stroke-linecap="round"/>
<path opacity="0.5" d="M9.63416 47.9168C10.9245 47.0832 13.9352 45 16.0858 45" stroke="#1ECBE6" stroke-width="4" stroke-linecap="round"/>
</svg>
